<?xml version="1.0" encoding="UTF-8"?>
<svg version="1.1" xmlns="http://www.w3.org/2000/svg" width="696" height="138">
<path d="M0 0 C17 0 17 0 20.1484375 3.140625 C20.81342364 4.74138697 21.42419878 6.36503871 22 8 C23.06170747 10.18904528 24.13852372 12.37079743 25.2265625 14.546875 C26.36415644 16.94582888 27.49779481 19.34619325 28.625 21.75 C29.75785177 24.16399256 30.89671806 26.57482521 32.0390625 28.984375 C32.53615723 30.04366211 33.03325195 31.10294922 33.54541016 32.19433594 C34.84472537 34.70050083 36.22826997 36.81181802 38 39 C38.56509277 37.88963379 39.13018555 36.77926758 39.71240234 35.63525391 C41.80697501 31.52209332 43.90661691 27.41153849 46.0078125 23.30175781 C46.91707975 21.52154243 47.82496463 19.74062028 48.73144531 17.95898438 C50.03349139 15.40047807 51.34046293 12.844542 52.6484375 10.2890625 C53.05371674 9.49005524 53.45899597 8.69104797 53.8765564 7.86782837 C54.44692123 6.75690323 54.44692123 6.75690323 55.02880859 5.62353516 C55.36190033 4.97067535 55.69499207 4.31781555 56.03817749 3.64517212 C57 2 57 2 59 0 C64.61 0 70.22 0 76 0 C76 25.41 76 50.82 76 77 C70.72 77 65.44 77 60 77 C57.86913558 74.86913558 58.74039128 70.10833065 58.68359375 67.15234375 C58.66281265 66.2659169 58.64203156 65.37949005 58.62062073 64.46620178 C58.555026 61.623383 58.49619448 58.78046883 58.4375 55.9375 C58.3943242 54.01496394 58.35071022 52.09243766 58.30664062 50.16992188 C58.19933457 45.44671332 58.09809549 40.72340847 58 36 C56.06074205 39.54070678 54.12390879 43.08273433 52.1875 46.625 C51.64029297 47.62402344 51.09308594 48.62304688 50.52929688 49.65234375 C47.93686285 54.3972836 45.36500869 59.13721019 43 64 C39.37 64 35.74 64 32 64 C31.24074219 62.39769531 30.48148437 60.79539063 29.69921875 59.14453125 C28.69544465 57.03379132 27.69153109 54.9231177 26.6875 52.8125 C26.18798828 51.75740234 25.68847656 50.70230469 25.17382812 49.61523438 C24.68720703 48.59365234 24.20058594 47.57207031 23.69921875 46.51953125 C23.25408936 45.58214111 22.80895996 44.64475098 22.3503418 43.67895508 C21.01745594 41.034631 19.55582183 38.51847411 18 36 C17.97494385 37.20648193 17.9498877 38.41296387 17.92407227 39.65600586 C17.83017477 44.11575661 17.72991167 48.57534513 17.62768555 53.03491211 C17.58426959 54.96814185 17.54259958 56.90141159 17.50268555 58.8347168 C17.44514369 61.60738202 17.3814038 64.37984457 17.31640625 67.15234375 C17.29133751 68.45702858 17.29133751 68.45702858 17.26576233 69.78807068 C17.11387171 75.88612829 17.11387171 75.88612829 16 77 C10.72 77 5.44 77 0 77 C0 51.59 0 26.18 0 0 Z " fill="#FF6000" transform="translate(255,31)"/>
<path d="M0 0 C7.16392842 5.47461779 12.35069782 14.77965494 13.9140625 23.6171875 C14.94969648 35.84022564 13.72969956 45.85062315 6.2265625 55.9296875 C2.32211355 60.49332913 -1.80764782 63.77647387 -7.0859375 66.6171875 C-7.69824219 66.95621094 -8.31054688 67.29523438 -8.94140625 67.64453125 C-15.94556885 70.8852632 -24.55146007 70.71966347 -31.9296875 68.92578125 C-43.13135685 64.79430135 -50.00893534 57.53786428 -54.9609375 46.8046875 C-56.0859375 43.6171875 -56.0859375 43.6171875 -56.0859375 39.6171875 C-56.7459375 39.6171875 -57.4059375 39.6171875 -58.0859375 39.6171875 C-59.34159777 25.52588889 -56.77032839 15.32913335 -48.08984375 4.015625 C-34.36721061 -10.72861262 -16.12828588 -10.69178502 0 0 Z M-25.0859375 7.6171875 C-25.7674198 9.50897953 -25.7674198 9.50897953 -26.0859375 11.6171875 C-25.4259375 12.2771875 -24.7659375 12.9371875 -24.0859375 13.6171875 C-21.97772953 13.2986698 -21.97772953 13.2986698 -20.0859375 12.6171875 C-19.7559375 10.9671875 -19.4259375 9.3171875 -19.0859375 7.6171875 C-21.0659375 7.6171875 -23.0459375 7.6171875 -25.0859375 7.6171875 Z M-13.0859375 10.6171875 C-14.12808441 15.23226524 -14.12808441 15.23226524 -13.0859375 19.6171875 C-11.1059375 19.2871875 -9.1259375 18.9571875 -7.0859375 18.6171875 C-6.7559375 21.2571875 -6.4259375 23.8971875 -6.0859375 26.6171875 C-6.7459375 26.6171875 -7.4059375 26.6171875 -8.0859375 26.6171875 C-9.10133862 30.71942335 -9.10133862 30.71942335 -8.0859375 34.6171875 C-7.4259375 34.6171875 -6.7659375 34.6171875 -6.0859375 34.6171875 C-6.4159375 37.2571875 -6.7459375 39.8971875 -7.0859375 42.6171875 C-8.2615625 42.3078125 -8.2615625 42.3078125 -9.4609375 41.9921875 C-10.7603125 41.8065625 -10.7603125 41.8065625 -12.0859375 41.6171875 C-12.7459375 42.2771875 -13.4059375 42.9371875 -14.0859375 43.6171875 C-13.76267197 47.21397816 -13.76267197 47.21397816 -13.0859375 50.6171875 C-18.62439904 50.98641827 -18.62439904 50.98641827 -20.9609375 49.1171875 C-21.3321875 48.6221875 -21.7034375 48.1271875 -22.0859375 47.6171875 C-25.20378863 48.26363411 -25.20378863 48.26363411 -26.0859375 50.6171875 C-28.1484375 51.7421875 -28.1484375 51.7421875 -30.0859375 52.6171875 C-24.90496748 54.87555905 -20.46178243 55.29088541 -15.0859375 53.6171875 C-9.23934407 50.23503116 -5.86293719 45.62977587 -3.7109375 39.2890625 C-1.75023196 30.90704633 -2.66280184 23.06950092 -7.0859375 15.6171875 C-8.98043972 13.56558022 -10.7592808 12.20354434 -13.0859375 10.6171875 Z M-33.0859375 11.6171875 C-34.7359375 13.5971875 -36.3859375 15.5771875 -38.0859375 17.6171875 C-37.4259375 18.2771875 -36.7659375 18.9371875 -36.0859375 19.6171875 C-33.97772953 19.2986698 -33.97772953 19.2986698 -32.0859375 18.6171875 C-31.40635147 16.21999318 -31.40635147 16.21999318 -31.0859375 13.6171875 C-31.7459375 12.9571875 -32.4059375 12.2971875 -33.0859375 11.6171875 Z M-29.0859375 24.6171875 C-30.6868249 27.8189623 -30.43943469 31.13557368 -30.0859375 34.6171875 C-29.21947667 37.61874501 -29.21947667 37.61874501 -27.0859375 39.6171875 C-23.68064754 40.86557131 -23.68064754 40.86557131 -20.0859375 40.6171875 C-17.67311867 38.77582576 -16.43442837 37.31416924 -15.0859375 34.6171875 C-14.59258803 28.86224987 -14.59258803 28.86224987 -16.7734375 23.6796875 C-21.69973995 19.28595829 -24.52431186 20.18227368 -29.0859375 24.6171875 Z M-40.0859375 21.6171875 C-41.03328532 24.8305913 -41.25046171 27.77191197 -41.2734375 31.1171875 C-41.28761719 32.055625 -41.30179688 32.9940625 -41.31640625 33.9609375 C-41.08073653 36.67713087 -40.47078404 38.29633796 -39.0859375 40.6171875 C-39.0859375 38.6371875 -39.0859375 36.6571875 -39.0859375 34.6171875 C-38.4259375 34.6171875 -37.7659375 34.6171875 -37.0859375 34.6171875 C-36.28640612 31.33022517 -35.98934814 29.90695558 -37.0859375 26.6171875 C-37.7459375 26.6171875 -38.4059375 26.6171875 -39.0859375 26.6171875 C-39.0859375 24.9671875 -39.0859375 23.3171875 -39.0859375 21.6171875 C-39.4159375 21.6171875 -39.7459375 21.6171875 -40.0859375 21.6171875 Z M-38.0859375 42.6171875 C-36.81652253 46.53121699 -35.57426056 48.40791623 -32.0859375 50.6171875 C-31.40100377 47.75940717 -31.40100377 47.75940717 -31.0859375 44.6171875 C-31.7459375 43.6271875 -32.4059375 42.6371875 -33.0859375 41.6171875 C-36.0114019 41.3935807 -36.0114019 41.3935807 -38.0859375 42.6171875 Z " fill="#000000" transform="translate(65.0859375,38.3828125)"/>
<path d="M0 0 C41.10244989 0 41.10244989 0 49.5859375 5.75390625 C55.29949674 11.52984059 58.7143245 17.62344063 59.15234375 25.8671875 C58.77824948 32.79272757 57.162377 38.83083679 52.1796875 43.82421875 C50.49554997 45.28675924 48.79114763 46.67173322 47 48 C50.30895152 55.24486227 54.3434995 61.90074157 58.69677734 68.55273438 C62 73.68303255 62 73.68303255 62 77 C55.98246919 78.27644593 49.84920679 79.41861873 44 77 C38.63390808 71.84765178 35.35143652 64.89250319 32.13476562 58.26831055 C30.96562538 55.81429849 30.96562538 55.81429849 29 53 C26.11404054 52.41518879 26.11404054 52.41518879 22.875 52.3125 C20.91666667 52.20833333 18.95833333 52.10416667 17 52 C17.00785522 53.08269165 17.00785522 53.08269165 17.01586914 54.18725586 C17.03657358 57.43732849 17.04963918 60.68738728 17.0625 63.9375 C17.07087891 65.07380859 17.07925781 66.21011719 17.08789062 67.38085938 C17.09272461 69.00024414 17.09272461 69.00024414 17.09765625 70.65234375 C17.10551147 72.15269165 17.10551147 72.15269165 17.11352539 73.68334961 C17 76 17 76 16 77 C10.72 77 5.44 77 0 77 C0 51.59 0 26.18 0 0 Z M17 16 C17 22.6 17 29.2 17 36 C20.238125 36.061875 23.47625 36.12375 26.8125 36.1875 C27.82932861 36.21481201 28.84615723 36.24212402 29.89379883 36.27026367 C30.69841553 36.27775635 31.50303223 36.28524902 32.33203125 36.29296875 C33.15421143 36.3086792 33.9763916 36.32438965 34.82348633 36.34057617 C37.51342838 35.91965983 38.33424252 35.10611911 40 33 C41.72194097 29.55611807 41.37796284 25.77311176 41 22 C39.2880813 18.23601432 39.2880813 18.23601432 36 16 C34.55151418 15.91657841 33.09929131 15.89267139 31.6484375 15.90234375 C30.49867432 15.90609009 30.49867432 15.90609009 29.32568359 15.90991211 C28.35195801 15.91901611 27.37823242 15.92812012 26.375 15.9375 C21.734375 15.9684375 21.734375 15.9684375 17 16 Z " fill="#000000" transform="translate(90,31)"/>
<path d="M0 0 C42.72413793 0 42.72413793 0 50.875 7.625 C55.75285159 13.84051302 58.74343194 20.79058399 58.3203125 28.7734375 C57.30531953 35.82887645 54.9672836 40.90853431 50 46 C49.01 46.66 48.02 47.32 47 48 C48.30545777 51.49424691 49.84223548 54.56323667 51.8203125 57.72265625 C52.35527344 58.59083984 52.89023437 59.45902344 53.44140625 60.35351562 C54.5677327 62.16582976 55.69797319 63.97571699 56.83203125 65.78320312 C57.36441406 66.65009766 57.89679687 67.51699219 58.4453125 68.41015625 C58.93531738 69.19527588 59.42532227 69.98039551 59.93017578 70.78930664 C61 73 61 73 61 77 C55.26668952 78.51578343 49.53023119 79.69198282 44 77 C39.93937791 72.44178997 37.17024661 67.09706437 34.52709961 61.625 C32.87907356 58.39393505 31.44413133 55.68590186 29 53 C24.91084871 51.71889906 21.24849655 51.6322954 17 52 C17.00785522 53.08269165 17.00785522 53.08269165 17.01586914 54.18725586 C17.03657358 57.43732849 17.04963918 60.68738728 17.0625 63.9375 C17.07087891 65.07380859 17.07925781 66.21011719 17.08789062 67.38085938 C17.09272461 69.00024414 17.09272461 69.00024414 17.09765625 70.65234375 C17.10551147 72.15269165 17.10551147 72.15269165 17.11352539 73.68334961 C17 76 17 76 16 77 C10.72 77 5.44 77 0 77 C0 51.59 0 26.18 0 0 Z M17 16 C17 22.6 17 29.2 17 36 C20.2175 36.103125 23.435 36.20625 26.75 36.3125 C27.75772461 36.35802002 28.76544922 36.40354004 29.80371094 36.45043945 C35.18112874 36.58602411 35.18112874 36.58602411 39.60546875 33.7578125 C40.95424194 31.09049073 41.56777113 29.51960567 41.5625 26.5625 C41.58441406 25.84191406 41.60632813 25.12132812 41.62890625 24.37890625 C40.66933411 20.74922035 39.04876466 18.14384637 36 16 C32.68751769 15.27861168 29.55707603 15.43051864 26.1875 15.625 C23.155625 15.74875 20.12375 15.8725 17 16 Z " fill="#FF6000" transform="translate(564,31)"/>
<path d="M0 0 C10.07823072 7.13423142 15.9634944 16.4715322 18.53515625 28.50390625 C19.97802065 38.83614209 17.90385804 49.35752249 12 58 C5.03001345 66.30160188 -2.20462312 72.25981397 -13.25 73.30859375 C-24.25886168 73.68702337 -32.12124936 71.01083838 -40.875 64.1875 C-48.88595995 56.68455214 -52.97078132 47.73924264 -53.40283203 36.86352539 C-53.58568224 25.05681043 -51.01199126 16.34924303 -43.20703125 7.2265625 C-39.81402502 3.80352966 -36.23445973 1.27893659 -32 -1 C-31.38769531 -1.33902344 -30.77539062 -1.67804687 -30.14453125 -2.02734375 C-20.75245129 -6.37293299 -8.76754867 -5.17804703 0 0 Z M-30.25 17.1875 C-35.68217655 24.14475286 -37.05775602 31.27047332 -36 40 C-34.46776843 46.6107601 -31.63290405 51.49621804 -26.27734375 55.71484375 C-20.9811944 58.70357983 -15.99143138 58.53104837 -10.25 57 C-4.47452554 53.44586187 -0.56641214 48.72096701 1.52734375 42.2265625 C3.2706023 34.0145181 2.33740862 26.24169685 -2 19 C-6.10866414 14.29742943 -10.60537581 11.36898089 -16.875 10.6875 C-22.59403079 11.25940308 -26.39943276 13.01287512 -30.25 17.1875 Z " fill="#FF6000" transform="translate(534,35)"/>
<path d="M0 0 C8.71171632 6.23300835 14.28934221 15.026966 16.59765625 25.4921875 C17.80161787 37.66694225 16.36784914 47.7866689 8.91015625 57.8046875 C5.0057073 62.36832913 0.87594593 65.65147387 -4.40234375 68.4921875 C-5.01464844 68.83121094 -5.62695312 69.17023438 -6.2578125 69.51953125 C-13.95885807 73.08270159 -23.84870126 72.77671567 -31.71484375 69.9296875 C-41.97797026 65.1098941 -49.23361796 57.78458676 -53.21484375 47.1171875 C-56.92760958 34.38770464 -55.38589048 22.91921069 -49.1640625 11.2890625 C-44.30410441 3.57347494 -37.27578063 -2.24566872 -28.55078125 -5.1171875 C-18.07163504 -7.02248681 -8.94526406 -5.6144259 0 0 Z M-32.65234375 15.6796875 C-38.08030805 22.63154552 -39.47014433 29.7677714 -38.40234375 38.4921875 C-36.35663774 46.95507842 -32.322627 51.43363305 -25.08984375 55.9296875 C-19.82833304 57.03093393 -14.87924522 56.88094593 -10.1171875 54.2109375 C-3.97694724 49.34465363 -1.08349329 43.45890287 -0.02734375 35.7578125 C0.31863306 28.10307547 -1.30102267 21.4152872 -6.09765625 15.34765625 C-10.31641537 11.15451713 -14.05944526 9.4610576 -20.015625 9.296875 C-25.44224416 9.74095185 -29.01009243 11.77855067 -32.65234375 15.6796875 Z " fill="#FF6000" transform="translate(396.40234375,36.5078125)"/>
<path d="M0 0 C1.21236328 0.57234375 1.21236328 0.57234375 2.44921875 1.15625 C4.31708131 2.06899261 6.16181116 3.02888137 8 4 C7.31238981 7.65564909 5.74550455 10.51867272 3.9375 13.75 C3.38964844 14.73484375 2.84179688 15.7196875 2.27734375 16.734375 C1.64505859 17.85585938 1.64505859 17.85585938 1 19 C-0.99910293 18.00268467 -2.99435092 17.00296437 -4.97265625 15.96484375 C-10.79418786 13.1030441 -16.47659726 11.70348169 -23 12 C-25.75156252 12.91403471 -25.75156252 12.91403471 -28 14 C-28.33 16.31 -28.66 18.62 -29 21 C-26.03937529 23.46632385 -23.48996964 24.65204748 -19.7890625 25.68359375 C-18.29246094 26.11575195 -18.29246094 26.11575195 -16.765625 26.55664062 C-14.68013284 27.14156411 -12.59419765 27.72491043 -10.5078125 28.30664062 C-2.05476889 30.752141 3.61641343 33.44895211 8.80078125 40.796875 C11.88013852 46.45406556 11.4454528 52.77462031 9.8515625 58.86328125 C7.2475898 65.39710265 2.14194141 69.04276895 -4 72 C-16.5574826 75.82963227 -32.50076586 73.93710458 -44 68 C-46.0458984 66.7213135 -48.01892506 65.37967719 -50 64 C-49.41712333 60.30626473 -48.40083644 57.50118255 -46.5625 54.25 C-46.13066406 53.47140625 -45.69882813 52.6928125 -45.25390625 51.890625 C-44 50 -44 50 -42 49 C-40.1171875 49.890625 -40.1171875 49.890625 -37.875 51.25 C-29.44949725 56.05119919 -21.93479635 58.66894066 -12 57 C-9.53293373 55.31021444 -9.53293373 55.31021444 -8 53 C-8.14349347 49.80045046 -8.14349347 49.80045046 -9 47 C-13.30049989 45.54090182 -17.60394268 44.1130133 -21.94921875 42.79296875 C-22.64660156 42.57987061 -23.34398437 42.36677246 -24.0625 42.1472168 C-25.45308658 41.72368221 -26.84497734 41.30440049 -28.23828125 40.88989258 C-35.62871734 38.63200567 -41.79597107 35.97408686 -46.1171875 29.265625 C-48.25649992 23.77535419 -47.94382973 16.40495536 -46.3828125 10.7734375 C-43.37860687 4.95112747 -37.39711855 -0.15854812 -31.5 -2.9375 C-21.17250043 -6.19667146 -9.57175219 -4.57712221 0 0 Z " fill="#000000" transform="translate(206,35)"/>
<path d="M0 0 C-0.58107632 3.7602985 -1.65199496 6.53035032 -3.5625 9.8125 C-4.01753906 10.60269531 -4.47257813 11.39289062 -4.94140625 12.20703125 C-5.46541016 13.09455078 -5.46541016 13.09455078 -6 14 C-9.42660711 14 -10.57233899 13.24020185 -13.5 11.5625 C-18.8610805 8.79954197 -23.95759773 7.63801277 -30 8 C-32.74764286 8.91982066 -32.74764286 8.91982066 -35 10 C-35.33 12.31 -35.66 14.62 -36 17 C-33.03937529 19.46632385 -30.48996964 20.65204748 -26.7890625 21.68359375 C-25.29246094 22.11575195 -25.29246094 22.11575195 -23.765625 22.55664062 C-21.68013284 23.14156411 -19.59419765 23.72491043 -17.5078125 24.30664062 C-7.77809901 27.12148686 -2.70409722 30.44385417 3 39 C3.14221065 41.60245498 3.18802932 44.09117684 3.125 46.6875 C3.11597656 47.38939453 3.10695313 48.09128906 3.09765625 48.81445312 C3.07413704 50.54311525 3.03826713 52.27160145 3 54 C2.34 54 1.68 54 1 54 C0.979375 54.680625 0.95875 55.36125 0.9375 56.0625 C-0.4677866 60.46573135 -3.28401588 63.31021389 -7 66 C-13.28864679 68.94887472 -18.72430577 69.54558873 -25.625 69.5 C-26.59050781 69.49645508 -27.55601562 69.49291016 -28.55078125 69.48925781 C-39.41838167 69.23896928 -48.08205807 66.21070956 -57 60 C-56.39644592 56.14974121 -55.23227397 53.13898841 -53.4375 49.6875 C-52.98246094 48.80449219 -52.52742187 47.92148438 -52.05859375 47.01171875 C-51.70925781 46.34785156 -51.35992188 45.68398437 -51 45 C-47.24762654 46.45672731 -43.71863909 48.12942175 -40.16015625 50 C-35.13913868 52.32437703 -30.85193218 53.27573488 -25.3125 53.25 C-23.63607422 53.25773437 -23.63607422 53.25773437 -21.92578125 53.265625 C-18.80893765 53.21726785 -18.80893765 53.21726785 -16 51 C-15.24939151 48.08617271 -15.24939151 48.08617271 -16 45 C-20.67628 41.16649455 -25.62348955 39.64587249 -31.375 38 C-48.47421329 33.06022727 -48.47421329 33.06022727 -53 26 C-55.09736075 19.70791774 -55.12980593 12.3536927 -53.01171875 6.06640625 C-49.26742206 -0.86317946 -43.58622221 -5.07043071 -36.16796875 -7.6328125 C-22.7911602 -9.89843413 -11.42394908 -7.10823499 0 0 Z " fill="#FF6000" transform="translate(687,39)"/>
<path d="M0 0 C1.8569751 -0.00472824 1.8569751 -0.00472824 3.75146484 -0.009552 C5.11295609 -0.00776222 6.47444701 -0.00571127 7.8359375 -0.00341797 C9.22216814 -0.00409106 10.60839867 -0.00506113 11.99462891 -0.00631714 C14.90333172 -0.00779387 17.81200387 -0.00564037 20.72070312 -0.00097656 C24.45690348 0.00472073 28.19303202 0.00144159 31.92922974 -0.00454903 C34.79273016 -0.00815532 37.65621343 -0.00701574 40.51971436 -0.00442123 C41.89768482 -0.00375215 43.27565682 -0.00457973 44.65362549 -0.00690079 C46.57637504 -0.00942839 48.49913002 -0.0048957 50.421875 0 C52.06615479 0.00119339 52.06615479 0.00119339 53.74365234 0.00241089 C56.2109375 0.12939453 56.2109375 0.12939453 57.2109375 1.12939453 C57.31003052 3.46099508 57.34064254 5.79569395 57.3359375 8.12939453 C57.33980469 10.04751953 57.33980469 10.04751953 57.34375 12.00439453 C57.2109375 15.12939453 57.2109375 15.12939453 56.2109375 16.12939453 C48.6209375 16.12939453 41.0309375 16.12939453 33.2109375 16.12939453 C33.2109375 36.25939453 33.2109375 56.38939453 33.2109375 77.12939453 C27.9309375 77.12939453 22.6509375 77.12939453 17.2109375 77.12939453 C16.2109375 76.12939453 16.2109375 76.12939453 16.09068298 73.73130798 C16.0940139 72.13579857 16.0940139 72.13579857 16.09741211 70.50805664 C16.09748764 69.30688705 16.09756317 68.10571747 16.09764099 66.8681488 C16.10280228 65.56088333 16.10796356 64.25361786 16.11328125 62.90673828 C16.11514552 61.56295321 16.11656938 60.21916746 16.11756897 58.87538147 C16.12139348 55.33257177 16.13122318 51.78980283 16.14227295 48.24700928 C16.15248851 44.63424227 16.1570669 41.02146869 16.16210938 37.40869141 C16.17284552 30.31557573 16.18992114 23.22248779 16.2109375 16.12939453 C15.549729 16.13463135 14.88852051 16.13986816 14.20727539 16.14526367 C11.22933899 16.16597109 8.25141768 16.17903465 5.2734375 16.19189453 C3.71206055 16.20446289 3.71206055 16.20446289 2.11914062 16.21728516 C1.12978516 16.22050781 0.14042969 16.22373047 -0.87890625 16.22705078 C-2.25357056 16.23490601 -2.25357056 16.23490601 -3.65600586 16.24291992 C-5.7890625 16.12939453 -5.7890625 16.12939453 -6.7890625 15.12939453 C-6.88815552 12.79779398 -6.91876754 10.46309512 -6.9140625 8.12939453 C-6.91664063 6.85064453 -6.91921875 5.57189453 -6.921875 4.25439453 C-6.69822762 -1.0078967 -4.75890371 0.00345393 0 0 Z " fill="#FF6000" transform="translate(421.7890625,30.87060546875)"/>
<path d="M0 0 C0.2475 0.639375 0.495 1.27875 0.75 1.9375 C1.81562433 4.18741541 1.81562433 4.18741541 4.125 4.75 C4.74375 4.8325 5.3625 4.915 6 5 C6.66 3.35 7.32 1.7 8 0 C8.66 0 9.32 0 10 0 C10 0.66 10 1.32 10 2 C11.32 2.33 12.64 2.66 14 3 C14 5.97 14 8.94 14 12 C15.98 11.67 17.96 11.34 20 11 C21.35439668 13.70879335 21.06501451 16.00933268 21 19 C20.34 19 19.68 19 19 19 C19 21.64 19 24.28 19 27 C19.66 27 20.32 27 21 27 C21.125 32.75 21.125 32.75 20 35 C18.35 35 16.7 35 15 35 C14.40267181 37.76264289 14 40.16032769 14 43 C11.03 43.495 11.03 43.495 8 44 C7.67 43.01 7.34 42.02 7 41 C5.35 41 3.7 41 2 41 C1.67 41.99 1.34 42.98 1 44 C-0.98 43.67 -2.96 43.34 -5 43 C-4.979375 42.05125 -4.95875 41.1025 -4.9375 40.125 C-4.77448174 37.09333717 -4.77448174 37.09333717 -6 35 C-6.804375 35.020625 -7.60875 35.04125 -8.4375 35.0625 C-11 35 -11 35 -12 34 C-12.04092937 31.66702567 -12.04241723 29.33294775 -12 27 C-11.34 27 -10.68 27 -10 27 C-10 24.36 -10 21.72 -10 19 C-10.66 19 -11.32 19 -12 19 C-12.125 13.25 -12.125 13.25 -11 11 C-9.35 11 -7.7 11 -6 11 C-5.814375 9.88625 -5.814375 9.88625 -5.625 8.75 C-4.62802816 4.36332389 -3.80009038 2.53339359 0 0 Z M-2 17 C-3.6008874 20.2017748 -3.35349719 23.51838618 -3 27 C-2.13353917 30.00155751 -2.13353917 30.00155751 0 32 C3.40528996 33.24838381 3.40528996 33.24838381 7 33 C9.41281883 31.15863826 10.65150913 29.69698174 12 27 C12.49334947 21.24506237 12.49334947 21.24506237 10.3125 16.0625 C5.38619755 11.66877079 2.56162564 12.56508618 -2 17 Z " fill="#29292A" transform="translate(38,46)"/>
<path d="M0 0 C1.32 0 2.64 0 4 0 C4.33 0.99 4.66 1.98 5 3 C5.99 3.33 6.98 3.66 8 4 C7.25 9.75 7.25 9.75 5 12 C2.5625 12.375 2.5625 12.375 0 12 C-1.875 10.375 -1.875 10.375 -3 8 C-2.77962372 4.32706204 -2.63033454 2.63033454 0 0 Z " fill="#29292A" transform="translate(40,63)"/>
</svg>
